<svg xmlns="http://www.w3.org/2000/svg" version="1.1" xmlns:xlink="http://www.w3.org/1999/xlink" xmlns:svgjs="http://svgjs.dev/svgjs" width="128" height="128" viewBox="0 0 128 128"><g transform="matrix(0.5175879396984925,0,0,0.5175879396984925,30.66302702939344,12.760752631578946)"><svg viewBox="0 0 61 95" data-background-color="#ffffff" preserveAspectRatio="xMidYMid meet" height="199" width="128" xmlns="http://www.w3.org/2000/svg" xmlns:xlink="http://www.w3.org/1999/xlink"><g id="tight-bounds" transform="matrix(1,0,0,1,0.19459305902556423,-0.24049999999999727)"><svg viewBox="0 0 60.610813881948886 95.481" height="95.481" width="60.610813881948886"><g><svg viewBox="0 0 60.610813881948886 95.481" height="95.481" width="60.610813881948886"><g><svg viewBox="0 0 60.610813881948886 95.481" height="95.481" width="60.610813881948886"><g id="textblocktransform"><svg viewBox="0 0 60.610813881948886 95.481" height="95.481" width="60.610813881948886" id="textblock"><g><svg viewBox="0 0 60.610813881948886 95.481" height="95.481" width="60.610813881948886"><g><svg viewBox="0 0 60.610813881948886 95.481" height="95.481" width="60.610813881948886"><g><svg xmlns="http://www.w3.org/2000/svg" xmlns:xlink="http://www.w3.org/1999/xlink" version="1.1" x="0" y="0" viewBox="-0.00002334465173162288 0 79.98474209465172 126.00099999999999" style="enable-background:new 0 0 79.986 126;" xml:space="preserve" width="60.610813881948886" height="95.481" class="icon-icon-0" data-fill-palette-color="accent" id="icon-0"><g fill="#454b53" data-fill-palette-color="accent"><circle cx="50.112" cy="39.008" r="2.0" fill="#000000" data-fill-palette-color="accent"></circle><circle cx="30.112" cy="39.008" r="2.0" fill="#000000" data-fill-palette-color="accent"></circle><path d="M48.25 29.516c0.027-0.005 2.638-0.432 4.444 0.841 0.175 0.123 0.376 0.183 0.575 0.183 0.314 0 0.624-0.147 0.818-0.424 0.318-0.451 0.21-1.075-0.241-1.394-2.496-1.76-5.802-1.201-5.941-1.176-0.542 0.096-0.904 0.612-0.81 1.155C47.19 29.244 47.707 29.612 48.25 29.516z" fill="#000000" data-fill-palette-color="accent"></path><path d="M26.717 30.539c0.199 0 0.4-0.06 0.575-0.183 1.794-1.264 4.382-0.851 4.443-0.841 0.542 0.09 1.061-0.268 1.157-0.812s-0.267-1.063-0.811-1.158c-0.14-0.025-3.445-0.584-5.941 1.176-0.451 0.318-0.56 0.942-0.241 1.394C26.094 30.392 26.403 30.539 26.717 30.539z" fill="#000000" data-fill-palette-color="accent"></path><path d="M43.266 48.537c0.532-0.15 0.84-0.703 0.689-1.234-0.15-0.531-0.704-0.842-1.234-0.689-1.813 0.514-3.642 0.514-5.455 0-0.53-0.152-1.084 0.158-1.234 0.689-0.151 0.531 0.158 1.084 0.689 1.234C37.805 48.845 38.906 49 39.993 49 41.081 49 42.183 48.845 43.266 48.537z" fill="#000000" data-fill-palette-color="accent"></path><path d="M46.993 75.571v-6.859c6.537-2.387 11.69-7.584 13.857-11.197 0.71-1.184 1.351-2.257 1.919-3.357 2.808-0.026 5.362-2.159 6.639-5.632 1.486-4.04-0.694-8.114-3.782-9.727 0.001-0.161 0.005-0.311 0.005-0.475 2.613-6.88 1.871-18.951-3.933-27.483C58.335 5.895 51.839 0 39.991 0c-2.989 0-5.817 0.391-8.406 1.162-0.006 0.002-0.01 0.006-0.016 0.008-0.006 0.002-0.012 0-0.018 0.002C24.237 3.644 17.927 0.165 17.863 0.13c-0.299-0.168-0.664-0.173-0.965-0.01-0.302 0.162-0.5 0.467-0.525 0.809-0.184 2.595 1.168 5.123 3.766 7.185-1.129 0.18-2.29 0.265-2.828 0.287-0.323 0.013-0.621 0.181-0.798 0.451s-0.213 0.609-0.095 0.911c0.018 0.046 0.403 1.022 1.171 2.358-5.209 8.588-5.812 19.961-3.345 26.309 0 0.098 0.003 0.187 0.003 0.284-3.05 1.609-5.178 5.712-3.67 9.813 1.275 3.467 3.82 5.597 6.616 5.621 0.54 1.025 1.143 2.036 1.809 3.145l0.134 0.224c2.168 3.613 7.32 8.81 13.857 11.197v6.859C22.207 79.218 4.305 90.437 0.001 124.876c-0.005 0.036 0.01 0.07 0.009 0.106-0.001 0.079 0.003 0.153 0.02 0.23 0.013 0.057 0.03 0.109 0.052 0.163 0.029 0.071 0.066 0.135 0.111 0.198 0.02 0.028 0.027 0.063 0.05 0.09 0.019 0.022 0.048 0.031 0.068 0.05 0.023 0.022 0.036 0.052 0.062 0.073 0.044 0.034 0.094 0.051 0.141 0.077 0.036 0.02 0.068 0.043 0.107 0.058 0.12 0.048 0.245 0.08 0.371 0.08 0 0 0 0 0 0s0 0 0 0h78c0 0 0 0 0 0s0 0 0 0c0.126 0 0.249-0.031 0.369-0.079 0.038-0.015 0.069-0.036 0.105-0.056 0.045-0.024 0.092-0.039 0.134-0.071 0.029-0.022 0.042-0.054 0.068-0.078 0.022-0.021 0.053-0.031 0.073-0.054 0.022-0.025 0.028-0.057 0.047-0.084 0.046-0.064 0.082-0.128 0.112-0.2 0.022-0.053 0.041-0.104 0.054-0.16 0.018-0.078 0.021-0.153 0.02-0.233 0-0.037 0.014-0.072 0.01-0.109C75.681 90.437 57.779 79.218 46.993 75.571zM52.225 82.695l-2.399-1.511 0.694-2.028C56.523 82.007 63.658 87.274 69.28 97H44.412l1.608-4.698 1.438 1.174c0.186 0.151 0.409 0.226 0.632 0.226 0.29 0 0.578-0.125 0.775-0.367 0.349-0.429 0.285-1.059-0.143-1.407l-2.012-1.643 0.741-2.165 1.975 1.155c0.159 0.093 0.333 0.137 0.504 0.137 0.344 0 0.678-0.177 0.864-0.495 0.279-0.477 0.118-1.089-0.358-1.368l-2.323-1.359 1.047-3.06 2 1.259c0.166 0.104 0.35 0.153 0.532 0.153 0.332 0 0.657-0.165 0.847-0.467C52.833 83.607 52.693 82.99 52.225 82.695zM65.581 41.15c1.784 1.441 2.898 4.11 1.951 6.686-0.808 2.199-2.209 3.702-3.78 4.167C64.771 49.416 65.408 46.264 65.581 41.15zM12.454 47.836c-0.963-2.618 0.099-5.305 1.838-6.755 0.171 5.151 0.826 8.294 1.881 10.896C14.63 51.498 13.253 50.01 12.454 47.836zM20.85 56.485l-0.135-0.224c-2.871-4.783-4.457-7.434-4.472-17.868 2.584-8.451 6.093-14.497 10.71-18.465 3.122 0.979 8.242 1.839 13.201 1.839 4.825 0 9.466-0.818 11.894-3.124 5.673 5.908 9.479 12.352 11.583 19.675-0.017 10.69-1.611 13.358-4.496 18.167C56.464 60.938 48.906 68 39.993 68S23.522 60.938 20.85 56.485zM34.296 77.245c0.425-0.135 0.683-0.529 0.683-0.953h0.014v-6.963c1.606 0.421 3.278 0.671 5 0.671s3.394-0.249 5-0.671v6.963h0.014c0 0.424 0.258 0.818 0.683 0.953 0.94 0.299 1.944 0.66 2.996 1.094l-1.439 4.204c-4.881 3.647-9.63 3.646-14.498 0l-1.447-4.204C32.352 77.904 33.356 77.544 34.296 77.245zM29.468 79.156l0.47 1.365-2.318 1.668c-0.448 0.322-0.55 0.947-0.228 1.396C27.587 83.855 27.893 84 28.204 84c0.202 0 0.406-0.062 0.583-0.188l1.83-1.316 0.869 2.524-2.077 1.733c-0.424 0.354-0.481 0.984-0.127 1.408 0.198 0.237 0.482 0.359 0.769 0.359 0.226 0 0.453-0.076 0.64-0.232l1.492-1.245 0.916 2.66-2.024 2.235c-0.371 0.409-0.339 1.041 0.07 1.412 0.191 0.173 0.432 0.259 0.671 0.259 0.272 0 0.544-0.11 0.742-0.329l1.285-1.418L35.611 97H10.707C16.329 87.272 23.465 82.006 29.468 79.156zM8.417 101.41l1.644 14.279c-2.502 1.17-4.969 3.121-7.581 6.009C3.77 113.588 5.857 106.907 8.417 101.41zM3.106 124c2.537-2.974 4.874-4.991 7.196-6.214L11.018 124H3.106zM13.031 124l-2.878-25h59.689l-2.686 25H13.031zM69.168 124l0.521-4.845c2.528 0.739 4.928 2.363 7.165 4.845H69.168zM69.904 117.148l1.686-15.692c2.561 5.511 4.646 12.209 5.932 20.339C75.158 119.413 72.607 117.861 69.904 117.148z" fill="#000000" data-fill-palette-color="accent"></path><path d="M39.991 107.085c-2.992 0-5.425 2.434-5.425 5.426 0 2.991 2.434 5.425 5.425 5.425s5.425-2.434 5.425-5.425C45.416 109.519 42.982 107.085 39.991 107.085z" fill="#000000" data-fill-palette-color="accent"></path><path d="M36.605 44.085v-4.946c1.917-1.035 4.968-1.028 7 0.016v4.93c0 0.553 0.448 1 1 1h10.681c0.552 0 1-0.447 1-1v-10.17c0-0.553-0.448-1-1-1H44.605c-0.552 0-1 0.447-1 1v3.062c-2.191-0.805-4.869-0.811-7-0.022v-3.04c0-0.553-0.448-1-1-1H24.924c-0.552 0-1 0.447-1 1v10.17c0 0.553 0.448 1 1 1h10.681C36.157 45.085 36.605 44.638 36.605 44.085zM45.605 34.915h8.681v8.17h-8.681V34.915zM34.605 43.085h-8.681v-8.17h8.681V43.085z" fill="#000000" data-fill-palette-color="accent"></path></g></svg></g></svg></g></svg></g></svg></g></svg></g><g></g></svg></g><defs></defs></svg><rect width="60.610813881948886" height="95.481" fill="none" stroke="none" visibility="hidden"></rect></g></svg></g></svg>